<?xml version="1.0" encoding="utf-8"?><!-- Uploaded to: SVG Repo, www.svgrepo.com, Generator: SVG Repo Mixer Tools -->
<!-- <svg width="24" height="24" viewBox="0 0 24 24" xmlns="http://www.w3.org/2000/svg">
  <path fill="none" stroke="#000000" stroke-width="2" d="M1,12 C1,5 2.5,4 12,4 C21.5,4 23,5 23,12 C23,19 21.5,20 12,20 C2.5,20 1,19 1,12 Z M5.25,14 C5.25,15.5 6,16 7.75,16 C9.5,16 10.25,15.5 10.25,14 L9.97861679,14 C9.97861671,15.25 8.97905547,16 7.75,16 C6.52094453,16 5.52138329,15.25 5.52138321,14 L5.52138321,10 C5.5,8.75 6.5,8 7.75,8 C9,8 10,8.75 9.97861679,10 L10.25,10 C10.25,8.75 9.2286998,8 7.75,8 C6.2713002,8 5.25,8.75 5.25,10 L5.25,14 Z M13.25,14 C13.25,15.5 14,16 15.75,16 C17.5,16 18.25,15.5 18.25,14 L17.9786168,14 C17.9786167,15.25 16.9790555,16 15.75,16 C14.5209445,16 13.5213833,15.25 13.5213832,14 L13.5213832,10 C13.5,8.75 14.5,8 15.75,8 C17,8 18,8.75 17.9786168,10 L18.25,10 C18.25,8.75 17.2286998,8 15.75,8 C14.2713002,8 13.25,8.75 13.25,10 L13.25,14 Z"/>
</svg> -->

<!-- <svg xmlns="http://www.w3.org/2000/svg" width="32" height="32" fill="#000000" viewBox="0 0 256 256">
<path d="M224,48H32A16,16,0,0,0,16,64V192a16,16,0,0,0,16,16H224a16,16,0,0,0,16-16V64A16,16,0,0,0,224,48Zm0,144H32V64H224V192ZM48,136a8,8,0,0,1,8-8H72a8,8,0,0,1,0,16H56A8,8,0,0,1,48,136Zm160,0a8,8,0,0,1-8,8H104a8,8,0,0,1,0-16h96A8,8,0,0,1,208,136Zm-48,32a8,8,0,0,1-8,8H56a8,8,0,0,1,0-16h96A8,8,0,0,1,160,168Zm48,0a8,8,0,0,1-8,8H184a8,8,0,0,1,0-16h16A8,8,0,0,1,208,168Z"></path>
</svg> -->

<svg xmlns="http://www.w3.org/2000/svg" width="40" height="40" fill="#000000" viewBox="0 0 256 256"><path d="M224,44H32A20,20,0,0,0,12,64V192a20,20,0,0,0,20,20H224a20,20,0,0,0,20-20V64A20,20,0,0,0,224,44Zm-4,144H36V68H220ZM48,128a12,12,0,0,1,12-12H76a12,12,0,0,1,0,24H60A12,12,0,0,1,48,128Zm56,0a12,12,0,0,1,12-12h80a12,12,0,0,1,0,24H116A12,12,0,0,1,104,128ZM48,164a12,12,0,0,1,12-12h80a12,12,0,0,1,0,24H60A12,12,0,0,1,48,164Zm160,0a12,12,0,0,1-12,12H180a12,12,0,0,1,0-24h16A12,12,0,0,1,208,164Z"></path></svg>