<?xml version="1.0" encoding="utf-8"?><!-- Uploaded to: SVG Repo, www.svgrepo.com, Generator: SVG Repo Mixer Tools -->
<!-- <svg width="24" height="24" viewBox="0 0 24 24" fill="none" xmlns="http://www.w3.org/2000/svg">
<path d="M4 10C4 6.22876 4 4.34315 5.17157 3.17157C6.34315 2 8.22876 2 12 2C15.7712 2 17.6569 2 18.8284 3.17157C20 4.34315 20 6.22876 20 10V14C20 17.7712 20 19.6569 18.8284 20.8284C17.6569 22 15.7712 22 12 22C8.22876 22 6.34315 22 5.17157 20.8284C4 19.6569 4 17.7712 4 14V10Z" stroke="#1C274C" stroke-width="1.5"/>
<path d="M14 7.5C14 8.60457 13.1046 9.5 12 9.5C10.8954 9.5 10 8.60457 10 7.5C10 6.39543 10.8954 5.5 12 5.5C13.1046 5.5 14 6.39543 14 7.5Z" stroke="#1C274C" stroke-width="1.5"/>
<path d="M15 15.5C15 17.1569 13.6569 18.5 12 18.5C10.3431 18.5 9 17.1569 9 15.5C9 13.8431 10.3431 12.5 12 12.5C13.6569 12.5 15 13.8431 15 15.5Z" stroke="#1C274C" stroke-width="1.5"/>
</svg> -->

<!-- <svg xmlns="http://www.w3.org/2000/svg" width="32" height="32" fill="#000000" viewBox="0 0 256 256"><path d="M192,24H64A16,16,0,0,0,48,40V216a16,16,0,0,0,16,16H192a16,16,0,0,0,16-16V40A16,16,0,0,0,192,24Zm0,192H64V40H192ZM116,76a12,12,0,1,1,12,12A12,12,0,0,1,116,76Zm12,116a40,40,0,1,0-40-40A40,40,0,0,0,128,192Zm0-64a24,24,0,1,1-24,24A24,24,0,0,1,128,128Z"></path></svg> -->
<!-- <svg xmlns="http://www.w3.org/2000/svg" width="32" height="32" fill="#000000" viewBox="0 0 256 256"><path d="M192,20H64A20,20,0,0,0,44,40V216a20,20,0,0,0,20,20H192a20,20,0,0,0,20-20V40A20,20,0,0,0,192,20Zm-4,192H68V44H188ZM112,76a16,16,0,1,1,16,16A16,16,0,0,1,112,76Zm16,120a44,44,0,1,0-44-44A44.05,44.05,0,0,0,128,196Zm0-64a20,20,0,1,1-20,20A20,20,0,0,1,128,132Z"></path></svg> -->
<svg xmlns="http://www.w3.org/2000/svg" width="40" height="40" fill="#000000" viewBox="0 0 256 256"><path d="M157.27,21.22a12,12,0,0,0-12.64,1.31L75.88,76H32A20,20,0,0,0,12,96v64a20,20,0,0,0,20,20H75.88l68.75,53.47A12,12,0,0,0,164,224V32A12,12,0,0,0,157.27,21.22ZM36,100H68v56H36Zm104,99.46L92,162.13V93.87l48-37.33ZM212,128a44,44,0,0,1-11,29.11,12,12,0,1,1-18-15.88,20,20,0,0,0,0-26.43,12,12,0,0,1,18-15.86A43.94,43.94,0,0,1,212,128Zm40,0a83.87,83.87,0,0,1-21.39,56,12,12,0,0,1-17.89-16,60,60,0,0,0,0-80,12,12,0,1,1,17.88-16A83.87,83.87,0,0,1,252,128Z"></path></svg>