<?xml version="1.0" encoding="utf-8"?><!-- Uploaded to: SVG Repo, www.svgrepo.com, Generator: SVG Repo Mixer Tools -->
<!-- <svg width="24" height="24" viewBox="0 0 24 24" fill="none" xmlns="http://www.w3.org/2000/svg">
<path d="M12 6.25C11.3096 6.25 10.75 6.80964 10.75 7.5C10.75 8.19036 11.3096 8.75 12 8.75C12.6904 8.75 13.25 8.19036 13.25 7.5C13.25 6.80964 12.6904 6.25 12 6.25Z" fill="#1C274C"/>
<path d="M9.75 15.5C9.75 14.2574 10.7574 13.25 12 13.25C13.2426 13.25 14.25 14.2574 14.25 15.5C14.25 16.7426 13.2426 17.75 12 17.75C10.7574 17.75 9.75 16.7426 9.75 15.5Z" fill="#1C274C"/>
<path fill-rule="evenodd" clip-rule="evenodd" d="M4 10C4 6.22876 4 4.34315 5.17157 3.17157C6.34315 2 8.22876 2 12 2C15.7712 2 17.6569 2 18.8284 3.17157C20 4.34315 20 6.22876 20 10V14C20 17.7712 20 19.6569 18.8284 20.8284C17.6569 22 15.7712 22 12 22C8.22876 22 6.34315 22 5.17157 20.8284C4 19.6569 4 17.7712 4 14V10ZM9.25 7.5C9.25 5.98122 10.4812 4.75 12 4.75C13.5188 4.75 14.75 5.98122 14.75 7.5C14.75 9.01878 13.5188 10.25 12 10.25C10.4812 10.25 9.25 9.01878 9.25 7.5ZM12 11.75C9.92893 11.75 8.25 13.4289 8.25 15.5C8.25 17.5711 9.92893 19.25 12 19.25C14.0711 19.25 15.75 17.5711 15.75 15.5C15.75 13.4289 14.0711 11.75 12 11.75Z" fill="#1C274C"/>
</svg> -->

<svg xmlns="http://www.w3.org/2000/svg" width="40" height="40" fill="#000000" viewBox="0 0 256 256"><path d="M160,32.25V223.69a8.29,8.29,0,0,1-3.91,7.18,8,8,0,0,1-9-.56l-65.57-51A4,4,0,0,1,80,176.16V79.84a4,4,0,0,1,1.55-3.15l65.57-51a8,8,0,0,1,10,.16A8.27,8.27,0,0,1,160,32.25ZM60,80H32A16,16,0,0,0,16,96v64a16,16,0,0,0,16,16H60a4,4,0,0,0,4-4V84A4,4,0,0,0,60,80Zm126.77,20.84a8,8,0,0,0-.72,11.3,24,24,0,0,1,0,31.72,8,8,0,1,0,12,10.58,40,40,0,0,0,0-52.88A8,8,0,0,0,186.74,100.84Zm40.89-26.17a8,8,0,1,0-11.92,10.66,64,64,0,0,1,0,85.34,8,8,0,1,0,11.92,10.66,80,80,0,0,0,0-106.66Z"></path></svg>
