<?xml version="1.0" encoding="utf-8"?>
<!-- <svg width="24" height="24" viewBox="0 0 24 24" fill="none" xmlns="http://www.w3.org/2000/svg">
<path d="M6 18L14.5 12L6 6V18Z" fill="#1C274C"/>
<path d="M16 6H18V18H16V6Z" fill="#1C274C"/>
</svg> -->

<!-- <svg xmlns="http://www.w3.org/2000/svg" width="24" height="24" viewBox="0 0 24 24">
  <g transform="scale(0.09375)" fill="#000000">
    <path d="M200 28a12 12 0 0 0-12 12v62L74.55 31A20 20 0 0 0 44 47.88v160.24A20 20 0 0 0 74.55 225L188 154v62a12 12 0 0 0 24 0V40a12 12 0 0 0-12-12M68 200.73V55.27L184.3 128Z"/>
  </g>
</svg> -->
<svg xmlns="http://www.w3.org/2000/svg" width="40" height="40" fill="#000000" viewBox="0 0 256 256"><path d="M200,28a12,12,0,0,0-12,12v62l-113.45-71A20,20,0,0,0,44,47.88V208.12A20,20,0,0,0,74.55,225L188,154v62a12,12,0,0,0,24,0V40A12,12,0,0,0,200,28ZM68,200.73V55.27L184.3,128Z"></path></svg>